<svg width="366" height="424" viewBox="0 0 366 424" fill="none" xmlns="http://www.w3.org/2000/svg">
<path d="M275.433 30.8153C257.518 18.596 227.77 11.6069 198.573 30.3791C186.735 41.6459 176.78 56.9197 170.092 76.7363C170.092 76.7363 135.768 38.9793 80.8489 59.5742C25.9297 80.169 29.3623 139.665 29.3623 139.665C29.3623 139.665 45.1578 91.2155 98.011 88.1785C150.972 85.1349 173.578 139.23 173.578 139.23C173.578 139.23 185.086 84.393 233.021 72.1595C277.22 60.8795 303.819 95.5864 292.636 138.793C311.638 94.7556 303.898 50.2297 275.433 30.8153Z" fill="url(#paint0_linear_78_579)"/>
<path d="M248.123 222.334C248.123 222.334 208.817 161.827 128.903 190.579C128.903 190.579 169.742 189.721 188.345 236.346C199.918 265.348 176.814 306.127 176.814 306.127C176.814 306.127 216.234 270.539 248.123 222.334Z" fill="url(#paint1_linear_78_579)"/>
<path d="M335.994 41.2676C308.963 1.42159 241.414 -10.3943 198.573 30.3789C227.769 11.6056 257.518 18.5958 275.433 30.8151C303.898 50.2295 311.638 94.7554 292.636 138.792C291.524 143.083 290.047 147.457 288.17 151.88C269.905 194.935 248.123 222.334 248.123 222.334C216.234 270.539 176.814 306.127 176.814 306.127C353.433 231.986 382.356 109.608 335.994 41.2676Z" fill="url(#paint2_linear_78_579)"/>
<path opacity="0.29" d="M287.705 90.7584C287.705 90.7584 287.7 90.7693 287.698 90.7737C295.253 103.229 297.444 120.219 292.635 138.794C311.639 94.7566 303.898 50.2307 275.433 30.8162C257.518 18.597 227.77 11.6078 198.573 30.38C222.166 16.6593 291.494 20.0196 287.705 90.7584Z" fill="url(#paint3_linear_78_579)"/>
<path opacity="0.29" d="M233.843 206.715C225.258 243.862 194.081 289.038 176.815 306.127C176.815 306.127 216.234 270.539 248.124 222.334C248.124 222.334 243.378 215.036 233.843 206.715Z" fill="url(#paint4_linear_78_579)"/>
<path d="M55.4906 194.397C55.1389 185.557 61.91 180.848 64.9791 193.813C68.0493 206.779 72.2429 235.727 72.2429 235.727C72.2429 235.727 55.9977 232.868 56.173 231.713C56.3483 230.558 55.4906 194.397 55.4906 194.397Z" fill="#50C8EF"/>
<path d="M39.8265 172.641C39.3921 161.725 47.7539 155.909 51.5463 171.921C55.3375 187.934 60.5166 223.687 60.5166 223.687C60.5166 223.687 40.4526 220.156 40.6698 218.729C40.8859 217.304 39.8265 172.641 39.8265 172.641Z" fill="#67C8E7"/>
<path d="M24.0971 157.389C23.6142 145.252 32.9109 138.785 37.1265 156.588C41.3422 174.391 47.1001 214.139 47.1001 214.139C47.1001 214.139 20.4073 186.6 20.6487 185.014C20.8879 183.429 24.0971 157.389 24.0971 157.389Z" fill="#80E0FF"/>
<path d="M130.214 322.553C126.484 263.99 65.9108 260.522 39.8111 239.751C13.7114 218.98 7.9777 165.971 9.59054 154.068C11.2034 142.165 17.5191 136.301 22.7677 152.914C28.0163 169.526 32.9144 199.447 52.7138 213.267C72.5143 227.087 116.031 233.619 88.4839 213.649C60.9367 193.679 67.1907 171.97 71.8175 167.392C76.4433 162.813 88.9756 188.946 105.302 197.76C121.629 206.573 144.204 215.9 155.503 243.338C171.228 281.524 130.214 322.553 130.214 322.553Z" fill="url(#paint5_linear_78_579)"/>
<path d="M32.0156 368.27L30.9837 356.516L21.5173 357.279L20.4405 367.732L15.954 368.181L13.3967 338.39L23.6259 337.717L21.921 353.824L30.7594 353.914L29.4583 338.48L39.6875 337.807L36.5021 367.822L32.0156 368.27ZM67.3042 367.553L49.7621 367.956L47.6534 338.39L67.4388 337.762L67.3042 340.768L57.8377 341.89L56.6713 351.177L66.2274 351.087L66.4518 355.125L56.3123 354.362L55.101 364.367L67.4837 362.931L67.3042 367.553ZM71.9912 367.553L80.3809 337.717L91.2381 338.39L97.0706 367.553L93.0327 368.226L89.9371 360.778L78.003 361.765L76.4776 368.226L71.9912 367.553ZM82.3549 343.37L78.8106 358.31L88.95 358.4L82.7138 343.37H82.3549ZM113.252 356.157C112.714 356.336 112.28 356.426 111.951 356.426L110.74 367.732L106.253 368.181L103.696 339.288C105.281 338.779 107.375 338.316 109.977 337.897C112.609 337.478 115.121 337.269 117.514 337.269C121.343 337.269 124.408 337.987 126.711 339.422C127.25 341.037 127.519 342.518 127.519 343.864C127.519 347.633 125.351 350.743 121.014 353.196L128.551 367.508L125.41 369.257L113.252 356.157ZM118.86 345.075C118.86 342.952 117.918 341.322 116.034 340.185C115.316 340.185 114.508 340.335 113.611 340.634L112.265 353.555C114.329 352.628 115.944 351.386 117.11 349.831C118.277 348.246 118.86 346.661 118.86 345.075ZM132.595 338.346L155.521 337.717L155.387 340.723L149.106 341.352L146.324 367.732L141.389 368.181L139.146 342.339L132.865 342.967L132.595 338.346ZM181.642 364.277C184.783 364.277 187.788 363.739 190.66 362.662L192.185 367.508C189.763 368.255 187.295 368.629 184.783 368.629C182.27 368.629 180.027 368.36 178.053 367.822C176.109 367.283 174.613 366.58 173.566 365.713C173.058 363.201 172.804 360.718 172.804 358.266C172.804 353.271 173.746 348.739 175.63 344.672C177.514 340.604 179.683 337.762 182.136 336.147L190.794 341.621C186.667 344.253 183.392 347.603 180.969 351.67C178.546 355.738 177.335 359.836 177.335 363.963C178.621 364.173 180.057 364.277 181.642 364.277ZM216.365 358.266C216.365 360.09 216.216 361.615 215.917 362.842C215.617 364.038 215.079 365.1 214.301 366.027C212.806 367.762 209.905 368.629 205.598 368.629C201.321 368.629 198.001 367.657 195.638 365.713C195.129 363.201 194.875 360.718 194.875 358.266C194.875 353.301 195.802 348.859 197.657 344.941C199.541 341.023 201.724 338.241 204.207 336.596C207.706 338.032 210.608 340.723 212.911 344.672C215.214 348.59 216.365 353.121 216.365 358.266ZM210.937 356.247C210.937 351.641 210.174 347.692 208.648 344.402C205.747 347.064 203.474 350.145 201.829 353.644C200.214 357.144 199.406 360.584 199.406 363.963C200.423 364.173 201.635 364.277 203.04 364.277C205.792 364.277 208.155 363.933 210.129 363.246C210.667 360.913 210.937 358.58 210.937 356.247ZM247.406 337.942L245.476 367.553L241.439 368.226L226.902 344.178H226.544L226.678 367.553L222.192 367.777L223.403 338.39L234.26 337.717L242.112 360.105H242.471L242.919 338.166L247.406 337.942ZM278.469 337.942L276.54 367.553L272.502 368.226L257.966 344.178H257.607L257.742 367.553L253.255 367.777L254.467 338.39L265.324 337.717L273.175 360.105H273.534L273.983 338.166L278.469 337.942ZM304.553 367.553L287.011 367.956L284.902 338.39L304.687 337.762L304.553 340.768L295.086 341.89L293.92 351.177L303.476 351.087L303.7 355.125L293.561 354.362L292.35 364.367L304.732 362.931L304.553 367.553ZM319.873 364.277C323.013 364.277 326.019 363.739 328.891 362.662L330.416 367.508C327.993 368.255 325.526 368.629 323.013 368.629C320.501 368.629 318.258 368.36 316.284 367.822C314.339 367.283 312.844 366.58 311.797 365.713C311.289 363.201 311.034 360.718 311.034 358.266C311.034 353.271 311.977 348.739 313.861 344.672C315.745 340.604 317.914 337.762 320.366 336.147L329.025 341.621C324.898 344.253 321.622 347.603 319.2 351.67C316.777 355.738 315.566 359.836 315.566 363.963C316.852 364.173 318.288 364.277 319.873 364.277ZM332.208 338.346L355.134 337.717L355 340.723L348.719 341.352L345.937 367.732L341.002 368.181L338.759 342.339L332.478 342.967L332.208 338.346Z" fill="#263238"/>
<path d="M67.68 389.893L68.275 390.768L67.26 392.798C68.4267 393.801 69.3833 395.236 70.13 397.103C70.9 398.969 71.285 400.789 71.285 402.563C71.285 404.336 71.0983 405.899 70.725 407.253C70.375 408.583 69.8383 409.831 69.115 410.998C68.3917 412.141 67.3767 413.051 66.07 413.728C64.7867 414.404 63.2933 414.743 61.59 414.743C59.1633 414.743 57.1333 413.821 55.5 411.978C53.8667 410.134 53.05 407.591 53.05 404.348C53.05 401.081 54.0767 398.106 56.13 395.423C57.2033 393.999 58.7317 392.798 60.715 391.818C62.6983 390.814 65.02 390.173 67.68 389.893ZM62.465 411.838C64.5883 411.768 66.21 410.974 67.33 409.458C68.4733 407.941 69.045 406.168 69.045 404.138C69.045 402.084 68.7067 400.043 68.03 398.013C67.3533 395.983 66.4083 394.361 65.195 393.148C62.2317 393.568 60.0267 394.676 58.58 396.473C57.1333 398.246 56.41 400.486 56.41 403.193C56.41 405.876 56.9933 407.988 58.16 409.528C59.35 411.068 60.785 411.838 62.465 411.838ZM75.2069 413.868C75.7669 410.928 76.0469 408.256 76.0469 405.853C76.0469 403.449 75.9536 401.758 75.7669 400.778C75.6036 399.774 75.4169 398.934 75.2069 398.258C75.0202 397.581 74.9152 397.196 74.8919 397.103L75.7319 396.578L78.5669 397.943C78.7536 399.296 78.8469 400.428 78.8469 401.338C78.8469 402.248 78.8352 402.913 78.8119 403.333C79.7919 401.419 80.8769 399.891 82.0669 398.748C83.2569 397.604 84.3536 397.033 85.3569 397.033C87.2936 397.033 88.2619 398.351 88.2619 400.988C88.2619 403.041 88.0636 405.503 87.6669 408.373C87.2702 411.219 87.0252 413.039 86.9319 413.833C86.6519 414.159 86.1386 414.323 85.3919 414.323C85.2286 414.323 85.1469 414.288 85.1469 414.218C85.4969 411.231 85.6719 408.734 85.6719 406.728C85.6719 403.064 84.9836 401.233 83.6069 401.233C82.5569 401.233 81.4719 402.084 80.3519 403.788C79.2552 405.491 78.3569 407.894 77.6569 410.998H77.5869C77.2602 412.118 76.9919 412.958 76.7819 413.518C76.4552 413.844 76.1052 414.008 75.7319 414.008C75.3819 414.008 75.2069 413.961 75.2069 413.868ZM103.804 400.673C103.547 401.746 103.034 402.714 102.264 403.578C101.494 404.441 100.619 405.129 99.6386 405.643C97.8419 406.576 96.2669 407.171 94.9136 407.428C95.0069 408.594 95.3102 409.458 95.8236 410.018C96.3369 410.578 96.9552 410.858 97.6786 410.858C99.7319 410.858 101.587 409.131 103.244 405.678C103.267 405.538 103.384 405.468 103.594 405.468C103.804 405.468 104.119 405.631 104.539 405.958C103.535 408.384 102.299 410.391 100.829 411.978C99.3819 413.541 97.9352 414.323 96.4886 414.323C95.0419 414.323 93.9102 413.798 93.0936 412.748C92.3002 411.698 91.9036 410.286 91.9036 408.513C91.9036 406.063 92.5686 403.799 93.8986 401.723C94.6219 400.603 95.6369 399.623 96.9436 398.783C98.2736 397.919 99.8486 397.278 101.669 396.858C103.092 397.348 103.804 398.619 103.804 400.673ZM99.7086 399.623C98.7286 399.623 97.7136 400.194 96.6636 401.338C95.6136 402.458 95.0302 404.021 94.9136 406.028C96.8502 405.514 98.3319 404.768 99.3586 403.788C100.409 402.784 100.934 401.804 100.934 400.848C100.934 400.498 100.829 400.206 100.619 399.973C100.409 399.739 100.105 399.623 99.7086 399.623ZM118.925 388.633L121.76 389.963C121.994 391.619 122.11 393.498 122.11 395.598C122.11 397.698 121.97 400.066 121.69 402.703C122.647 400.789 123.72 399.261 124.91 398.118C126.124 396.951 127.267 396.368 128.34 396.368C130.347 396.368 131.35 397.686 131.35 400.323C131.35 402.423 130.767 404.546 129.6 406.693C128.457 408.816 126.859 410.624 124.805 412.118C122.775 413.611 120.605 414.439 118.295 414.603C118.249 414.626 118.144 414.638 117.98 414.638C117.84 414.638 117.77 414.579 117.77 414.463C118.867 409.796 119.415 405.211 119.415 400.708C119.415 396.204 118.972 392.366 118.085 389.193L118.925 388.633ZM120.675 409.738L120.045 412.678C122.659 411.791 124.642 410.414 125.995 408.548C127.372 406.658 128.06 404.861 128.06 403.158C128.06 401.431 127.489 400.568 126.345 400.568C125.435 400.568 124.432 401.384 123.335 403.018C122.262 404.628 121.375 406.868 120.675 409.738ZM146.108 400.673C145.852 401.746 145.338 402.714 144.568 403.578C143.798 404.441 142.923 405.129 141.943 405.643C140.147 406.576 138.572 407.171 137.218 407.428C137.312 408.594 137.615 409.458 138.128 410.018C138.642 410.578 139.26 410.858 139.983 410.858C142.037 410.858 143.892 409.131 145.548 405.678C145.572 405.538 145.688 405.468 145.898 405.468C146.108 405.468 146.423 405.631 146.843 405.958C145.84 408.384 144.603 410.391 143.133 411.978C141.687 413.541 140.24 414.323 138.793 414.323C137.347 414.323 136.215 413.798 135.398 412.748C134.605 411.698 134.208 410.286 134.208 408.513C134.208 406.063 134.873 403.799 136.203 401.723C136.927 400.603 137.942 399.623 139.248 398.783C140.578 397.919 142.153 397.278 143.973 396.858C145.397 397.348 146.108 398.619 146.108 400.673ZM142.013 399.623C141.033 399.623 140.018 400.194 138.968 401.338C137.918 402.458 137.335 404.021 137.218 406.028C139.155 405.514 140.637 404.768 141.663 403.788C142.713 402.784 143.238 401.804 143.238 400.848C143.238 400.498 143.133 400.206 142.923 399.973C142.713 399.739 142.41 399.623 142.013 399.623ZM159.121 397.523L161.956 396.298L162.796 396.788C162.026 399.051 161.641 401.664 161.641 404.628C161.641 405.888 161.746 407.638 161.956 409.878C162.166 412.118 162.364 413.634 162.551 414.428C162.551 414.498 162.376 414.533 162.026 414.533C161.676 414.533 161.337 414.369 161.011 414.043C160.264 412.316 159.669 409.773 159.226 406.413C158.246 408.746 157.067 410.648 155.691 412.118C154.337 413.588 153.112 414.323 152.016 414.323C149.916 414.323 148.866 413.004 148.866 410.368C148.866 408.851 149.169 407.393 149.776 405.993C150.382 404.593 151.199 403.368 152.226 402.318C154.279 400.241 156.577 398.643 159.121 397.523ZM153.906 410.123C154.652 410.123 155.481 409.528 156.391 408.338C157.324 407.124 158.152 405.421 158.876 403.228C158.852 402.901 158.841 402.271 158.841 401.338C158.841 400.404 158.852 399.716 158.876 399.273C156.869 400.416 155.247 401.641 154.011 402.948C152.774 404.231 152.156 405.748 152.156 407.498C152.156 409.248 152.739 410.123 153.906 410.123ZM176.261 397.558L175.211 400.008C174.068 400.241 172.901 400.369 171.711 400.393C171.268 406.599 170.685 411.079 169.961 413.833C169.681 414.159 169.191 414.323 168.491 414.323C168.328 414.323 168.246 414.288 168.246 414.218C168.76 410.904 169.016 407.684 169.016 404.558C169.016 403.414 168.981 402.003 168.911 400.323C167.675 400.183 166.706 400.019 166.006 399.833C165.866 399.763 165.715 399.529 165.551 399.133C165.411 398.713 165.33 398.386 165.306 398.153L165.446 397.943C166.356 398.129 167.476 398.223 168.806 398.223C168.666 395.656 168.538 393.929 168.421 393.043L169.261 392.448L172.096 393.953L171.886 398.048C173.123 397.908 174.465 397.558 175.911 396.998L176.261 397.558ZM197.392 397.523L200.227 396.298L201.067 396.788C200.297 399.051 199.912 401.664 199.912 404.628C199.912 405.888 200.017 407.638 200.227 409.878C200.437 412.118 200.636 413.634 200.822 414.428C200.822 414.498 200.647 414.533 200.297 414.533C199.947 414.533 199.609 414.369 199.282 414.043C198.536 412.316 197.941 409.773 197.497 406.413C196.517 408.746 195.339 410.648 193.962 412.118C192.609 413.588 191.384 414.323 190.287 414.323C188.187 414.323 187.137 413.004 187.137 410.368C187.137 408.851 187.441 407.393 188.047 405.993C188.654 404.593 189.471 403.368 190.497 402.318C192.551 400.241 194.849 398.643 197.392 397.523ZM192.177 410.123C192.924 410.123 193.752 409.528 194.662 408.338C195.596 407.124 196.424 405.421 197.147 403.228C197.124 402.901 197.112 402.271 197.112 401.338C197.112 400.404 197.124 399.716 197.147 399.273C195.141 400.416 193.519 401.641 192.282 402.948C191.046 404.231 190.427 405.748 190.427 407.498C190.427 409.248 191.011 410.123 192.177 410.123ZM214.533 397.558L213.483 400.008C212.34 400.241 211.173 400.369 209.983 400.393C209.54 406.599 208.956 411.079 208.233 413.833C207.953 414.159 207.463 414.323 206.763 414.323C206.6 414.323 206.518 414.288 206.518 414.218C207.031 410.904 207.288 407.684 207.288 404.558C207.288 403.414 207.253 402.003 207.183 400.323C205.946 400.183 204.978 400.019 204.278 399.833C204.138 399.763 203.986 399.529 203.823 399.133C203.683 398.713 203.601 398.386 203.578 398.153L203.718 397.943C204.628 398.129 205.748 398.223 207.078 398.223C206.938 395.656 206.81 393.929 206.693 393.043L207.533 392.448L210.368 393.953L210.158 398.048C211.395 397.908 212.736 397.558 214.183 396.998L214.533 397.558ZM235.664 397.523L238.499 396.298L239.339 396.788C238.569 399.051 238.184 401.664 238.184 404.628C238.184 405.888 238.289 407.638 238.499 409.878C238.709 412.118 238.907 413.634 239.094 414.428C239.094 414.498 238.919 414.533 238.569 414.533C238.219 414.533 237.881 414.369 237.554 414.043C236.807 412.316 236.212 409.773 235.769 406.413C234.789 408.746 233.611 410.648 232.234 412.118C230.881 413.588 229.656 414.323 228.559 414.323C226.459 414.323 225.409 413.004 225.409 410.368C225.409 408.851 225.712 407.393 226.319 405.993C226.926 404.593 227.742 403.368 228.769 402.318C230.822 400.241 233.121 398.643 235.664 397.523ZM230.449 410.123C231.196 410.123 232.024 409.528 232.934 408.338C233.867 407.124 234.696 405.421 235.419 403.228C235.396 402.901 235.384 402.271 235.384 401.338C235.384 400.404 235.396 399.716 235.419 399.273C233.412 400.416 231.791 401.641 230.554 402.948C229.317 404.231 228.699 405.748 228.699 407.498C228.699 409.248 229.282 410.123 230.449 410.123ZM262.964 397.558L261.914 400.008C260.771 400.241 259.604 400.369 258.414 400.393C257.971 406.599 257.387 411.079 256.664 413.833C256.384 414.159 255.894 414.323 255.194 414.323C255.031 414.323 254.949 414.288 254.949 414.218C255.462 410.904 255.719 407.684 255.719 404.558C255.719 403.414 255.684 402.003 255.614 400.323C254.377 400.183 253.409 400.019 252.709 399.833C252.569 399.763 252.417 399.529 252.254 399.133C252.114 398.713 252.032 398.386 252.009 398.153L252.149 397.943C253.059 398.129 254.179 398.223 255.509 398.223C255.369 395.656 255.241 393.929 255.124 393.043L255.964 392.448L258.799 393.953L258.589 398.048C259.826 397.908 261.167 397.558 262.614 396.998L262.964 397.558ZM268.966 397.943C269.012 398.643 269.036 399.366 269.036 400.113C269.036 404.173 268.324 408.641 266.901 413.518C266.574 413.844 266.131 414.008 265.571 414.008C265.454 414.008 265.372 413.996 265.326 413.973C265.302 413.949 265.302 413.914 265.326 413.868C265.886 410.531 266.166 407.463 266.166 404.663C266.166 401.863 265.874 399.343 265.291 397.103L266.131 396.578L268.966 397.943ZM267.531 394.478C266.947 394.478 266.492 394.279 266.166 393.883C265.862 393.486 265.711 392.984 265.711 392.378C265.711 391.771 265.979 391.246 266.516 390.803C267.052 390.336 267.834 390.033 268.861 389.893C269.561 390.476 269.911 391.176 269.911 391.993C269.911 392.786 269.666 393.404 269.176 393.848C268.686 394.268 268.137 394.478 267.531 394.478ZM273.811 413.868C274.371 410.928 274.651 408.256 274.651 405.853C274.651 403.449 274.558 401.758 274.371 400.778C274.208 399.774 274.021 398.934 273.811 398.258C273.625 397.581 273.52 397.196 273.496 397.103L274.336 396.578L277.171 397.943C277.358 399.553 277.451 400.766 277.451 401.583C277.451 402.376 277.451 402.854 277.451 403.018C278.361 401.198 279.365 399.751 280.461 398.678C281.581 397.581 282.62 397.033 283.576 397.033C284.533 397.033 285.245 397.394 285.711 398.118C286.178 398.818 286.411 399.704 286.411 400.778C286.411 401.851 286.376 402.843 286.306 403.753C287.216 401.746 288.266 400.124 289.456 398.888C290.646 397.651 291.731 397.033 292.711 397.033C293.715 397.033 294.45 397.394 294.916 398.118C295.383 398.818 295.616 399.716 295.616 400.813C295.616 401.886 295.57 403.018 295.476 404.208C295.383 405.374 295.278 406.378 295.161 407.218C295.068 408.034 294.916 409.166 294.706 410.613C294.52 412.036 294.38 413.109 294.286 413.833C294.006 414.159 293.505 414.323 292.781 414.323C292.641 414.323 292.571 414.288 292.571 414.218C292.875 410.881 293.026 408.384 293.026 406.728C293.026 403.064 292.373 401.233 291.066 401.233C290.063 401.233 289.036 402.084 287.986 403.788C286.96 405.491 286.108 407.894 285.431 410.998C285.338 411.628 285.221 412.573 285.081 413.833C284.801 414.159 284.288 414.323 283.541 414.323C283.425 414.323 283.366 414.288 283.366 414.218C283.67 410.881 283.821 408.384 283.821 406.728C283.821 403.064 283.168 401.233 281.861 401.233C281.021 401.233 280.146 401.863 279.236 403.123C278.326 404.359 277.521 406.144 276.821 408.478C276.518 410.088 276.04 411.768 275.386 413.518C275.06 413.844 274.71 414.008 274.336 414.008C273.986 414.008 273.811 413.961 273.811 413.868ZM311.158 400.673C310.901 401.746 310.388 402.714 309.618 403.578C308.848 404.441 307.973 405.129 306.993 405.643C305.196 406.576 303.621 407.171 302.268 407.428C302.361 408.594 302.665 409.458 303.178 410.018C303.691 410.578 304.31 410.858 305.033 410.858C307.086 410.858 308.941 409.131 310.598 405.678C310.621 405.538 310.738 405.468 310.948 405.468C311.158 405.468 311.473 405.631 311.893 405.958C310.89 408.384 309.653 410.391 308.183 411.978C306.736 413.541 305.29 414.323 303.843 414.323C302.396 414.323 301.265 413.798 300.448 412.748C299.655 411.698 299.258 410.286 299.258 408.513C299.258 406.063 299.923 403.799 301.253 401.723C301.976 400.603 302.991 399.623 304.298 398.783C305.628 397.919 307.203 397.278 309.023 396.858C310.446 397.348 311.158 398.619 311.158 400.673ZM307.063 399.623C306.083 399.623 305.068 400.194 304.018 401.338C302.968 402.458 302.385 404.021 302.268 406.028C304.205 405.514 305.686 404.768 306.713 403.788C307.763 402.784 308.288 401.804 308.288 400.848C308.288 400.498 308.183 400.206 307.973 399.973C307.763 399.739 307.46 399.623 307.063 399.623Z" fill="#D5549F"/>
<defs>
<linearGradient id="paint0_linear_78_579" x1="43.135" y1="139.443" x2="280.082" y2="72.6974" gradientUnits="userSpaceOnUse">
<stop stop-color="#FFA3D8"/>
<stop offset="1" stop-color="#BF2C82"/>
</linearGradient>
<linearGradient id="paint1_linear_78_579" x1="137.388" y1="196.741" x2="219.708" y2="269.049" gradientUnits="userSpaceOnUse">
<stop stop-color="#FFA3D8"/>
<stop offset="0.662" stop-color="#D5549F"/>
<stop offset="1" stop-color="#BF2C82"/>
</linearGradient>
<linearGradient id="paint2_linear_78_579" x1="312.025" y1="10.7582" x2="171.859" y2="306.663" gradientUnits="userSpaceOnUse">
<stop stop-color="#FFBAE2"/>
<stop offset="1" stop-color="#D657A1"/>
</linearGradient>
<linearGradient id="paint3_linear_78_579" x1="135.147" y1="104.593" x2="287.425" y2="73.4449" gradientUnits="userSpaceOnUse">
<stop stop-color="#FFA3D8"/>
<stop offset="0.662" stop-color="#D5549F"/>
<stop offset="1" stop-color="#BF2C82"/>
</linearGradient>
<linearGradient id="paint4_linear_78_579" x1="137.388" y1="196.742" x2="219.707" y2="269.05" gradientUnits="userSpaceOnUse">
<stop stop-color="#FFA3D8"/>
<stop offset="0.662" stop-color="#D5549F"/>
<stop offset="1" stop-color="#BF2C82"/>
</linearGradient>
<linearGradient id="paint5_linear_78_579" x1="22.1859" y1="143.945" x2="146.389" y2="302.834" gradientUnits="userSpaceOnUse">
<stop stop-color="#B9E9F9"/>
<stop offset="0.5168" stop-color="#62CDF1"/>
<stop offset="1" stop-color="#50C8EF"/>
</linearGradient>
</defs>
</svg>
